<svg width="21" height="21" viewBox="0 0 21 21" fill="none" xmlns="http://www.w3.org/2000/svg">
<path fill-rule="evenodd" clip-rule="evenodd" d="M18.259 4.92701C18.0288 5.05861 17.8604 5.27622 17.7906 5.532C17.7209 5.78778 17.7555 6.06079 17.887 6.29101C18.619 7.5728 19.0028 9.02391 19 10.5C19 12.1812 18.5015 13.8245 17.5675 15.2224C16.6335 16.6202 15.306 17.7096 13.7528 18.353C12.1996 18.9963 10.4906 19.1647 8.84173 18.8367C7.19289 18.5087 5.67834 17.6992 4.48959 16.5104C3.30085 15.3217 2.4913 13.8071 2.16333 12.1583C1.83535 10.5094 2.00368 8.80037 2.64702 7.2472C3.29037 5.69403 4.37984 4.36651 5.77765 3.43252C7.17547 2.49853 8.81886 2.00001 10.5 2.00001C12.003 2.00001 13.447 2.39001 14.72 3.12001C14.8339 3.18534 14.9596 3.2276 15.0898 3.24436C15.2201 3.26112 15.3524 3.25207 15.4791 3.21771C15.6059 3.18335 15.7246 3.12437 15.8286 3.04412C15.9325 2.96387 16.0197 2.86393 16.085 2.75001C16.1503 2.63609 16.1926 2.51041 16.2094 2.38016C16.2261 2.24991 16.2171 2.11763 16.1827 1.99088C16.1483 1.86413 16.0894 1.74539 16.0091 1.64143C15.9289 1.53747 15.8289 1.45034 15.715 1.38501C14.1278 0.474996 12.3296 -0.00257554 10.5 1.04464e-05C4.701 1.04464e-05 0 4.70101 0 10.5C0 16.299 4.701 21 10.5 21C16.299 21 21 16.299 21 10.5C21 8.65201 20.52 6.87001 19.623 5.29901C19.4914 5.06886 19.2738 4.90039 19.018 4.83063C18.7622 4.76087 18.4892 4.79554 18.259 4.92701Z" fill="#FA520F"/>
<circle cx="10.5" cy="10.5" r="4.5" fill="#FA520F"/>
</svg>
