<svg width="24" height="24" viewBox="0 0 24 24" fill="none" xmlns="http://www.w3.org/2000/svg">
<path d="M12.486 1.626L20.97 6.34C21.282 6.51302 21.542 6.76634 21.7231 7.0737C21.9042 7.38105 21.9998 7.73125 22 8.088V15.912C21.9999 16.2686 21.9045 16.6188 21.7235 16.9261C21.5426 17.2335 21.2828 17.4868 20.971 17.66L12.486 22.374C12.3374 22.4567 12.1701 22.5 12 22.5C11.8299 22.5 11.6626 22.4567 11.514 22.374L3.03 17.66C2.71802 17.487 2.458 17.2337 2.27689 16.9263C2.09578 16.6189 2.00018 16.2687 2 15.912V8.088C2.00008 7.73135 2.09553 7.38122 2.27646 7.07387C2.45739 6.76653 2.71721 6.51315 3.029 6.34L11.514 1.626C11.6626 1.54334 11.8299 1.49996 12 1.49996C12.1701 1.49996 12.3374 1.54334 12.486 1.626ZM4 9.176V15.912L11 19.8V13.089L4 9.176ZM20 9.198L13 13.085V19.8L20 15.912V9.198ZM16.5 6.143L9.566 9.996L11.997 11.356L18.94 7.499L16.5 6.143ZM12 3.644L5.079 7.488L7.512 8.848L14.441 4.999L12 3.644Z" fill="black"/>
</svg>
