<svg width="18" height="18" viewBox="0 0 18 18" fill="none" xmlns="http://www.w3.org/2000/svg">
<path fill-rule="evenodd" clip-rule="evenodd" d="M8.49713 1.24425C8.65328 1.16622 8.82544 1.1256 9 1.1256C9.17456 1.1256 9.34672 1.16622 9.50287 1.24425L16.2529 4.61925C16.4397 4.71261 16.5969 4.85615 16.7068 5.03378C16.8166 5.21142 16.8749 5.41613 16.875 5.625V12.375C16.8749 12.5839 16.8166 12.7886 16.7068 12.9662C16.5969 13.1438 16.4397 13.2874 16.2529 13.3807L9.50287 16.7557C9.34672 16.8338 9.17456 16.8744 9 16.8744C8.82544 16.8744 8.65328 16.8338 8.49713 16.7557L1.74712 13.3807C1.56028 13.2874 1.40312 13.1438 1.29325 12.9662C1.18337 12.7886 1.12511 12.5839 1.125 12.375V5.625C1.12511 5.41613 1.18337 5.21142 1.29325 5.03378C1.40312 4.85615 1.56028 4.71261 1.74712 4.61925L8.49713 1.24425ZM3.99712 6.00975C3.81028 6.10311 3.65312 6.24665 3.54325 6.42428C3.43337 6.60192 3.37511 6.80663 3.375 7.0155V10.9845C3.37511 11.1934 3.43337 11.3981 3.54325 11.5757C3.65312 11.7533 3.81028 11.8969 3.99712 11.9902L8.49713 14.2402C8.65328 14.3183 8.82544 14.3589 9 14.3589C9.17456 14.3589 9.34672 14.3183 9.50287 14.2402L14.0029 11.9902C14.1897 11.8969 14.3469 11.7533 14.4568 11.5757C14.5666 11.3981 14.6249 11.1934 14.625 10.9845V7.0155C14.6249 6.80663 14.5666 6.60192 14.4568 6.42428C14.3469 6.24665 14.1897 6.10311 14.0029 6.00975L9.50287 3.75975C9.34672 3.68172 9.17456 3.6411 9 3.6411C8.82544 3.6411 8.65328 3.68172 8.49713 3.75975L3.99712 6.00975Z" fill="black"/>
<path fill-rule="evenodd" clip-rule="evenodd" d="M7.87495 9.69525L1.74707 6.63075L2.75282 4.61925L8.99995 7.74225L15.2471 4.61925L16.2528 6.63075L10.1249 9.69525V15.75H7.87495V9.69525Z" fill="black"/>
</svg>
