<svg width="18" height="18" viewBox="0 0 18 18" fill="none" xmlns="http://www.w3.org/2000/svg">
<path fill-rule="evenodd" clip-rule="evenodd" d="M17.25 6.375C17.25 3.6 15.6458 1.5 12.9615 1.5C11.3362 1.5 9.852 2.30175 9 3.5565C8.148 2.30175 6.663 1.5 5.0385 1.5C2.3535 1.5 0.75 3.6 0.75 6.375C0.75 9.23775 2.9145 12.123 8.55 16.35L9 16.6875L9.45 16.35C15.0863 12.123 17.25 9.237 17.25 6.375ZM12.9615 3C14.7165 3 15.75 4.35375 15.75 6.375C15.75 8.5725 13.9515 11.0333 9 14.8095C4.0485 11.034 2.25 8.5725 2.25 6.375C2.25 4.35375 3.28425 3 5.0385 3C6.7725 3 8.25 4.30725 8.25 6H9.75C9.75 4.30725 11.2267 3 12.9615 3Z" fill="black"/>
</svg>
