<svg width="16" height="16" viewBox="0 0 16 16" fill="none" xmlns="http://www.w3.org/2000/svg">
<path fill-rule="evenodd" clip-rule="evenodd" d="M3.06635 8.369L3.08935 6.161C3.09235 3.323 5.28535 1 8.02035 1C10.7604 1 12.9534 3.328 12.9534 6.186L12.9294 8.388L14.3804 13H1.61035L3.06635 8.369ZM6.48935 14C6.48935 14.828 7.16335 15.5 7.99535 15.5C8.82735 15.5 9.50135 14.828 9.50135 14H6.48935ZM10.9214 8.526L10.9204 8.684L11.6484 11H4.34235L5.07035 8.685L5.09635 6.172C5.09835 4.402 6.42235 3 8.02135 3C9.62335 3 10.9464 4.405 10.9464 6.176L10.9214 8.526Z" fill="#FA520F"/>
</svg>
