<svg width="30" height="32" viewBox="0 0 30 32" fill="none" xmlns="http://www.w3.org/2000/svg">
<path fill-rule="evenodd" clip-rule="evenodd" d="M6.45092 28.7982C7.22487 29.2249 7.77063 29.4925 8.06352 29.5925C8.12908 29.6149 8.81691 29.8467 10.0546 30.2635C15.8599 32.2185 22.263 30.1906 25.8844 25.25C30.4757 18.9861 29.1199 10.1862 22.856 5.59481L22.0329 4.99149L23.2209 3.43787L20.6726 2.08045L19.9756 1.83101C14.0854 -0.277064 7.50959 1.72034 3.78695 6.74832C-0.877136 13.0479 0.44867 21.9357 6.74822 26.5998L7.4971 27.1542L6.45092 28.7982Z" stroke="white" stroke-width="2"/>
<path d="M17.8293 9H12.1707C9.87096 9 8 10.871 8 13.1707V18.8293C8 21.129 9.87096 23 12.1707 23H17.8293C20.129 23 22 21.129 22 18.8293V13.1707C22 10.871 20.129 9 17.8293 9ZM20.5916 18.8293C20.5916 20.3549 19.3549 21.5916 17.8293 21.5916H12.1707C10.6451 21.5916 9.4084 20.3549 9.4084 18.8293V13.1707C9.4084 11.6451 10.6451 10.4084 12.1707 10.4084H17.8293C19.3549 10.4084 20.5916 11.6451 20.5916 13.1707V18.8293Z" fill="white"/>
<path d="M15 12.5C13.0701 12.5 11.5 14.0701 11.5 16C11.5 17.9299 13.0701 19.5 15 19.5C16.9299 19.5 18.5 17.9299 18.5 16C18.5 14.0701 16.9299 12.5 15 12.5ZM15 18.1386C13.8189 18.1386 12.8614 17.1812 12.8614 16C12.8614 14.8189 13.8189 13.8614 15 13.8614C16.1811 13.8614 17.1386 14.8189 17.1386 16C17.1386 17.1811 16.1811 18.1386 15 18.1386Z" fill="white"/>
<path d="M17.9167 12.9167C18.469 12.9167 18.9167 12.469 18.9167 11.9167C18.9167 11.3645 18.469 10.9167 17.9167 10.9167C17.3645 10.9167 16.9167 11.3645 16.9167 11.9167C16.9167 12.469 17.3645 12.9167 17.9167 12.9167Z" fill="white"/>
</svg>
