<svg width="194" height="66" viewBox="0 0 194 66" fill="none" xmlns="http://www.w3.org/2000/svg">
<path fill-rule="evenodd" clip-rule="evenodd" d="M14.8762 61.585V16.8499H14.5932L0 26.5871V13.9766L14.8358 4H29.6311V61.585H14.8762Z" fill="#FA520F"/>
<path fill-rule="evenodd" clip-rule="evenodd" d="M48.5021 51.3519C42.0306 47.0964 37.5427 39.9333 36.9626 31.5521C35.9804 17.363 46.5707 5.056 60.6167 4.0638C65.4057 3.7255 69.9782 4.74624 73.964 6.80101L69.8431 14.0114C67.2363 12.7499 64.2798 12.1332 61.1903 12.3515C51.6753 13.0236 44.5013 21.3606 45.1666 30.9726C45.5487 36.4931 48.4336 41.2335 52.623 44.1416L48.5021 51.3519Z" fill="#FA520F" stroke="#FA520F" stroke-width="8"/>
<path fill-rule="evenodd" clip-rule="evenodd" d="M75.0547 12.5557C81.5261 16.8111 86.014 23.9743 86.5942 32.3554C87.5764 46.5446 76.9861 58.8516 62.9401 59.8438C58.151 60.1821 53.5785 59.1613 49.5928 57.1065L53.7137 49.8962C56.3205 51.1576 59.2769 51.7743 62.3664 51.5561C71.8814 50.8839 79.0555 42.547 78.3902 32.935C78.008 27.4145 75.1231 22.6741 70.9338 19.766L75.0547 12.5557Z" fill="#FA520F" stroke="#FA520F" stroke-width="8"/>
<path fill-rule="evenodd" clip-rule="evenodd" d="M126.49 53.0291C132.962 48.7737 137.449 41.6105 138.03 33.2294C139.012 19.0402 128.422 6.73325 114.376 5.74105C109.586 5.40275 105.014 6.42348 101.028 8.47826L105.149 15.6886C107.756 14.4272 110.712 13.8105 113.802 14.0287C123.317 14.7009 130.491 23.0378 129.826 32.6499C129.443 38.1703 126.559 42.9107 122.369 45.8188L126.49 53.0291Z" fill="#FA520F" stroke="#FA520F" stroke-width="8"/>
<path fill-rule="evenodd" clip-rule="evenodd" d="M99.9375 14.2332C93.4661 18.4886 88.9781 25.6518 88.398 34.0329C87.4158 48.2221 98.0061 60.529 112.052 61.5212C116.841 61.8595 121.414 60.8388 125.399 58.784L121.279 51.5737C118.672 52.8351 115.715 53.4518 112.626 53.2336C103.111 52.5614 95.9367 44.2245 96.602 34.6124C96.9842 29.092 99.869 24.3516 104.058 21.4435L99.9375 14.2332Z" fill="#FA520F" stroke="#FA520F" stroke-width="8"/>
<path fill-rule="evenodd" clip-rule="evenodd" d="M160.454 15.0541V31.4157H168.969C174.316 31.4157 177.484 28.2631 177.484 23.2748C177.484 18.3663 174.118 15.0541 168.93 15.0541H160.454ZM160.454 41.4323V61.585H145.919V4H170.395C184.653 4 192.336 11.1033 192.336 22.9955C192.336 30.0589 188.811 36.5238 182.554 39.2773L194 61.585H177.682L167.86 41.4323H160.454Z" fill="#FA520F"/>
</svg>
