<svg width="33" height="32" viewBox="0 0 33 32" fill="none" xmlns="http://www.w3.org/2000/svg">
<g clip-path="url(#clip0_93:267)">
<path fill-rule="evenodd" clip-rule="evenodd" d="M7.8326 28.7982C8.65558 29.2249 9.23592 29.4925 9.54736 29.5925C9.61707 29.6149 10.3485 29.8467 11.6645 30.2635C17.8377 32.2185 24.6463 30.1906 28.4971 25.25C33.3793 18.9861 31.9376 10.1862 25.2769 5.59481L24.4016 4.99149L25.665 3.43787L22.9552 2.08045L22.2141 1.83101C15.9507 -0.277064 8.95834 1.72034 4.99988 6.74832C0.0403279 13.0479 1.45012 21.9357 8.14874 26.5998L8.94505 27.1542L7.8326 28.7982Z" stroke="white" stroke-width="2"/>
<path d="M21.4955 11.0999H12.3507C10.5889 11.0999 9.16064 12.443 9.16064 14.0999V17.6999C9.16064 19.3567 10.5889 20.6999 12.3507 20.6999H21.4955C23.2573 20.6999 24.6855 19.3567 24.6855 17.6999V14.0999C24.6855 12.443 23.2573 11.0999 21.4955 11.0999Z" stroke="white" stroke-width="1.4"/>
<path d="M10.0112 12.3999L16.4673 16.3999L23.3031 12.3999" stroke="white" stroke-width="1.4" stroke-linecap="square"/>
</g>
<defs>
<clipPath id="clip0_93:267">
<rect width="31.9005" height="32" fill="white" transform="translate(0.9729)"/>
</clipPath>
</defs>
</svg>
