<svg width="33" height="32" viewBox="0 0 33 32" fill="none" xmlns="http://www.w3.org/2000/svg">
<g clip-path="url(#clip0_93:282)">
<path fill-rule="evenodd" clip-rule="evenodd" d="M7.66049 28.7982C8.48346 29.2249 9.0638 29.4925 9.37524 29.5925C9.44495 29.6149 10.1764 29.8467 11.4924 30.2635C17.6655 32.2185 24.4742 30.1906 28.325 25.25C33.2072 18.9861 31.7655 10.1862 25.1048 5.59481L24.2295 4.99149L25.4928 3.43787L22.7831 2.08045L22.042 1.83101C15.7786 -0.277064 8.78622 1.72034 4.82776 6.74832C-0.131791 13.0479 1.278 21.9357 7.97662 26.5998L8.77293 27.1542L7.66049 28.7982Z" stroke="#00AFF0" stroke-width="2"/>
<path d="M10.323 8.87107C11.7825 7.88025 13.8466 7.79515 15.4009 8.64279C17.1534 8.35709 19.0064 8.6286 20.57 9.43031C22.3153 10.3124 23.6858 11.8273 24.3241 13.5929C24.7627 14.7877 24.8647 16.0865 24.6364 17.3312C25.1978 18.2599 25.3924 19.3777 25.1648 20.4253C24.9243 21.5809 24.1668 22.6285 23.1194 23.2721C21.6692 24.1894 19.6769 24.2414 18.1664 23.4187C16.4843 23.6909 14.7103 23.4552 13.1882 22.7244C11.4193 21.8882 10.0085 20.4091 9.31859 18.6632C8.81891 17.4157 8.69327 16.0432 8.93091 14.7302C8.35728 13.7854 8.17134 12.6432 8.41615 11.5801C8.65881 10.4941 9.35736 9.50731 10.323 8.87107ZM11.0479 9.67859C10.0605 10.2823 9.43023 11.3688 9.44112 12.4778C9.4266 13.2051 9.71776 13.9003 10.1294 14.504C9.86298 15.6554 9.88258 16.8723 10.2768 17.9957C10.8918 19.8231 12.4261 21.3474 14.3306 22.0296C15.6208 22.507 17.057 22.5684 18.4061 22.2905C18.7997 22.5056 19.1997 22.7234 19.6463 22.8252C20.7659 23.1127 22.022 22.8382 22.8919 22.117C23.7828 21.4013 24.2562 20.2554 24.0979 19.1621C24.0333 18.5816 23.7581 18.049 23.4386 17.5566C23.7095 16.3868 23.6819 15.148 23.2709 14.0103C22.6232 12.1439 21.0128 10.6053 19.04 9.96404C17.8006 9.54679 16.4413 9.50855 15.1605 9.77146C14.8323 9.59459 14.5056 9.40679 14.1425 9.29821C13.1209 8.9711 11.9447 9.11246 11.0479 9.67859Z" fill="#00AFF0"/>
<path d="M15.7264 11.3128C16.8821 11.1431 18.0998 11.3149 19.1311 11.8578C19.5821 12.1004 20.0186 12.4286 20.2282 12.8999C20.3648 13.2099 20.38 13.6146 20.1278 13.8741C19.8546 14.1455 19.4087 14.229 19.0423 14.1147C18.618 13.9421 18.407 13.5108 18.0471 13.2541C17.5947 12.8922 16.9854 12.7947 16.4152 12.8046C15.9982 12.8221 15.5515 12.914 15.2473 13.2113C14.9661 13.5024 14.8621 14.0011 15.136 14.3286C15.3947 14.6182 15.7944 14.7262 16.1608 14.8251C16.8597 14.9949 17.5665 15.1316 18.2682 15.2922C18.9982 15.4542 19.7353 15.7642 20.2174 16.3414C21.0485 17.3864 20.8613 19.0437 19.8278 19.8994C19.0011 20.6098 17.8512 20.8062 16.7802 20.8125C15.6368 20.7964 14.4147 20.5691 13.5359 19.8103C13.095 19.4245 12.7243 18.8424 12.8573 18.247C13.0025 17.6551 13.8401 17.4306 14.315 17.7946C14.6778 18.0773 14.8744 18.5072 15.2241 18.8025C15.6426 19.1749 16.2258 19.3228 16.7838 19.3095C17.3309 19.3235 17.9119 19.1608 18.287 18.7569C18.5421 18.484 18.6773 18.0688 18.5118 17.7196C18.3759 17.3913 18.0268 17.2125 17.6929 17.1241C17.0772 16.9677 16.4571 16.8254 15.8413 16.6676C15.1649 16.507 14.4617 16.3604 13.8799 15.969C13.426 15.6766 13.082 15.22 12.9714 14.6996C12.7857 13.8832 12.9187 12.9413 13.5301 12.3178C14.0895 11.714 14.9192 11.4334 15.7264 11.3128Z" fill="#00AFF0"/>
</g>
<defs>
<clipPath id="clip0_93:282">
<rect width="31.9005" height="32" fill="white" transform="translate(0.800781)"/>
</clipPath>
</defs>
</svg>
