<svg width="30" height="32" viewBox="0 0 30 32" fill="none" xmlns="http://www.w3.org/2000/svg">
<path fill-rule="evenodd" clip-rule="evenodd" d="M6.45092 28.7982C7.22487 29.2249 7.77063 29.4925 8.06352 29.5925C8.12908 29.6149 8.81691 29.8467 10.0546 30.2635C15.8599 32.2185 22.263 30.1906 25.8844 25.25C30.4757 18.9861 29.1199 10.1862 22.856 5.59481L22.0329 4.99149L23.2209 3.43787L20.6726 2.08045L19.9756 1.83101C14.0854 -0.277064 7.50959 1.72034 3.78695 6.74832C-0.877136 13.0479 0.44867 21.9357 6.74822 26.5998L7.4971 27.1542L6.45092 28.7982Z" stroke="white" stroke-width="2"/>
<path d="M18.8805 24C18.7555 24 18.6314 23.9638 18.5249 23.8932L14.5019 21.2237L12.3441 22.7425C12.1749 22.8615 11.9568 22.8915 11.7603 22.8228C11.564 22.7539 11.415 22.5949 11.3618 22.3977L10.2783 18.3812L6.40712 16.9332C6.16342 16.842 6.00179 16.6139 6.00001 16.3587C5.99824 16.1034 6.15666 15.8732 6.39919 15.7788L21.119 10.0492C21.1858 10.0214 21.2564 10.0054 21.3277 10.0011C21.3532 9.99964 21.3788 9.99964 21.4042 10.001C21.5518 10.0096 21.6968 10.0684 21.81 10.177C21.8217 10.1882 21.8329 10.1997 21.8434 10.2117C21.9371 10.3164 21.9887 10.4441 21.9984 10.5742C22.0007 10.607 22.0006 10.6401 21.9976 10.6732C21.9956 10.6968 21.9921 10.7204 21.9872 10.7438L19.5026 23.4964C19.4627 23.7013 19.3201 23.8728 19.1232 23.9527C19.0451 23.9844 18.9626 24 18.8805 24ZM14.8551 19.9608L18.4387 22.3386L20.372 12.4156L13.3895 18.9883L14.8382 19.9496C14.844 19.9532 14.8496 19.957 14.8551 19.9608ZM11.8719 19.432L12.3517 21.2106L13.3855 20.4829L12.0318 19.5846C11.9689 19.543 11.915 19.4911 11.8719 19.432ZM8.37596 16.3429L11.0341 17.3371C11.2245 17.4083 11.3683 17.5649 11.4203 17.7577L11.7574 19.0074C11.7728 18.8633 11.8396 18.7277 11.9482 18.6255L18.6015 12.3628L8.37596 16.3429Z" fill="white"/>
</svg>
