<svg width="33" height="32" viewBox="0 0 33 32" fill="none" xmlns="http://www.w3.org/2000/svg">
<g clip-path="url(#clip0_93:302)">
<path fill-rule="evenodd" clip-rule="evenodd" d="M7.10848 28.7982C7.93146 29.2249 8.5118 29.4925 8.82324 29.5925C8.89295 29.6149 9.62436 29.8467 10.9404 30.2635C17.1135 32.2185 23.9222 30.1906 27.773 25.25C32.6552 18.9861 31.2135 10.1862 24.5528 5.59481L23.6775 4.99149L24.9408 3.43787L22.2311 2.08045L21.49 1.83101C15.2266 -0.277064 8.23422 1.72034 4.27576 6.74832C-0.683793 13.0479 0.726 21.9357 7.42462 26.5998L8.22093 27.1542L7.10848 28.7982Z" stroke="#AB66FF" stroke-width="2"/>
<path d="M16.3003 8.40026C15.7826 8.40305 15.2635 8.43157 14.7394 8.49C13.7384 8.60269 12.7457 8.79017 11.7936 9.19086C10.2788 9.82806 9.20482 10.9098 8.89342 12.4816C8.75752 13.1475 8.6574 13.8191 8.59341 14.494C8.47644 15.8077 8.54936 17.1256 8.9557 18.4206C9.27622 19.4407 9.86636 20.3579 10.9004 20.9527C11.3379 21.2045 11.9152 21.3266 12.2163 21.4542C12.301 21.4911 12.3215 21.5127 12.3261 21.5182C12.3306 21.5224 12.3424 21.5318 12.3409 21.6132C12.3306 22.4445 12.3409 24.0535 12.3409 24.0535L12.3424 24.3999H13.0203L13.1304 24.3022C13.1304 24.3022 14.8522 22.7843 15.4754 22.1596C15.5882 22.0483 15.6463 21.9857 15.6577 21.9787C15.6683 21.9718 15.6501 21.968 15.7663 21.9652C16.5836 21.9502 17.3993 21.9217 18.2154 21.881C19.2909 21.8267 20.3868 21.7328 21.4418 21.3294C22.3601 20.9774 23.1268 20.4028 23.5913 19.5416C24.066 18.6581 24.3196 17.7221 24.4146 16.7535C24.5718 15.1406 24.5171 13.525 24.0303 11.9327C23.7439 10.9995 23.1682 10.21 22.286 9.65311C21.2295 8.98703 20.0386 8.7373 18.8724 8.57835C18.1918 8.48421 17.5058 8.4266 16.8179 8.40583C16.6458 8.40166 16.4738 8.39887 16.3003 8.40026ZM16.797 9.10147C17.4513 9.11747 18.1056 9.1759 18.7611 9.26564C19.8856 9.41937 20.9462 9.65311 21.8558 10.2263C22.5929 10.691 23.0528 11.3185 23.2988 12.1188C23.753 13.6081 23.8108 15.1337 23.6581 16.6923C23.5707 17.5903 23.3376 18.4366 22.9088 19.2341C22.5306 19.9381 21.9404 20.385 21.1479 20.688C20.2285 21.04 19.2286 21.1335 18.1751 21.1868C17.3681 21.2275 16.5596 21.2546 15.7511 21.2695C15.5479 21.2737 15.3493 21.3224 15.2081 21.4177C15.0676 21.5127 15.0038 21.601 14.916 21.688C14.4709 22.1335 13.5838 22.9175 13.1004 23.3471C13.0974 22.8278 13.0928 22.2003 13.1004 21.6215C13.1034 21.4434 13.0586 21.2615 12.9477 21.1172C12.8365 20.9732 12.6834 20.8862 12.5368 20.824C12.1077 20.6417 11.5472 20.5033 11.3041 20.3635C10.4539 19.8741 9.97194 19.1405 9.6856 18.2275C9.3104 17.0331 9.239 15.8036 9.35027 14.5521C9.40951 13.9027 9.51205 13.252 9.64117 12.6068C9.9108 11.2468 10.7596 10.3908 12.1096 9.82284C12.9625 9.46424 13.8732 9.2872 14.8329 9.18007C15.4845 9.10845 16.141 9.08217 16.797 9.10147ZM16.9572 10.835C16.6443 10.835 16.3401 10.8677 16.0451 10.9275C15.8419 10.971 15.7128 11.1571 15.7587 11.3445C15.8047 11.532 16.0094 11.6489 16.2144 11.6068C16.458 11.5559 16.707 11.5303 16.9569 11.5306C17.8454 11.5292 18.698 11.8518 19.3264 12.4271C19.9549 13.0024 20.3074 13.7832 20.3063 14.597C20.3063 14.8321 20.2782 15.0603 20.2235 15.2805C20.1773 15.4677 20.3054 15.6539 20.5099 15.6964C20.7147 15.7383 20.9178 15.6203 20.9637 15.4328C21.0305 15.1636 21.0662 14.8853 21.0662 14.597C21.0662 12.524 19.2221 10.835 16.9572 10.835ZM13.1688 11.532C13.104 11.529 13.0391 11.5341 12.9758 11.547C12.2858 11.6868 11.6007 12.1449 11.5814 12.9626C11.6003 13.0767 11.5992 13.1991 11.6452 13.3024C11.8707 13.8078 12.0667 14.3295 12.3485 14.8078C13.7205 17.1312 15.7959 18.7465 18.441 19.7722C18.7569 19.8946 19.0827 19.9204 19.4017 19.7983C19.8411 19.6313 20.2133 19.3729 20.4613 19.0018C20.8008 18.4926 20.8053 18.1392 20.246 17.7628C19.8799 17.5155 19.5191 17.2616 19.1484 17.0195C18.5834 16.6529 17.972 16.5889 17.5508 17.2331C17.5284 17.2655 17.4957 17.2926 17.4676 17.3201C17.2512 17.5305 16.9853 17.582 16.7036 17.4762C15.6342 17.0728 14.8078 16.4216 14.3096 15.453C14.0156 14.8839 14.0957 14.5984 14.6445 14.2193C14.6996 14.1827 14.7516 14.1434 14.8017 14.101C15.0421 13.9 15.1059 13.661 14.9635 13.3908C14.6456 12.7757 14.2072 12.2192 13.67 11.7491C13.5231 11.6218 13.3556 11.5414 13.1688 11.532ZM16.9512 11.8784C16.7841 11.8784 16.6177 11.8906 16.4544 11.9167C16.3165 11.9333 16.1994 12.0175 16.149 12.1363C16.0986 12.2551 16.123 12.3896 16.2125 12.4871C16.3033 12.5835 16.4457 12.6283 16.582 12.6012C16.7005 12.5838 16.8251 12.5741 16.9515 12.5741C18.1854 12.5741 19.1765 13.4819 19.1765 14.6123C19.1765 14.7274 19.1663 14.8419 19.1469 14.9504C19.1173 15.0756 19.1659 15.2057 19.2715 15.2888C19.2477 15.4547 19.3559 15.6127 19.5293 15.6654C19.7027 15.718 19.8925 15.6505 19.9816 15.5045C20.0708 15.3584 20.0341 15.1749 19.8943 15.0672C19.9228 14.9177 19.9361 14.7657 19.9361 14.6119C19.9361 13.1066 18.5951 11.8784 16.9512 11.8784ZM16.898 12.9219C16.761 12.9204 16.6336 12.9863 16.5642 13.0944C16.496 13.2029 16.496 13.3365 16.5642 13.445C16.6341 13.5535 16.7617 13.6189 16.898 13.6175C17.5314 13.6175 18.0373 14.0808 18.0373 14.661C18.0358 14.7862 18.1071 14.9027 18.2256 14.9667C18.3445 15.0293 18.4896 15.0293 18.6084 14.9667C18.7269 14.9027 18.7983 14.7859 18.7968 14.661C18.7968 13.7045 17.9423 12.9219 16.898 12.9219Z" fill="#B980FF"/>
</g>
<defs>
<clipPath id="clip0_93:302">
<rect width="31.9005" height="32" fill="white" transform="translate(0.248779)"/>
</clipPath>
</defs>
</svg>
