<svg width="15" height="15" viewBox="0 0 15 15" fill="none" xmlns="http://www.w3.org/2000/svg">
<g clip-path="url(#clip0_89:1783)">
<path d="M7.94942 13.6975C11.3347 13.6975 14.079 11.1487 14.079 8.00457C14.079 4.86045 11.3347 2.31165 7.94942 2.31165C4.56414 2.31165 1.81982 4.86045 1.81982 8.00457C1.81982 11.1487 4.56414 13.6975 7.94942 13.6975Z" fill="#FA520F"/>
<path d="M3.74658 13.1353C1.77782 11.9736 0.412504 10.0183 0.23601 7.73051C-0.062793 3.85728 3.159 0.497852 7.43208 0.22701C8.88902 0.134664 10.2801 0.413296 11.4926 0.974187L10.239 2.9424C9.44591 2.59806 8.5465 2.42973 7.60661 2.4893C4.71194 2.67277 2.52944 4.94852 2.73185 7.57232C2.8481 9.07924 3.72574 10.3732 5.00023 11.1671L3.74658 13.1353Z" fill="#FA520F" stroke="#FA520F" stroke-width="9"/>
<path d="M11.229 1.85938C13.1977 3.02099 14.563 4.97632 14.7395 7.26412C15.0383 11.1373 11.8165 14.4968 7.54345 14.7676C6.08651 14.86 4.69546 14.5813 3.48291 14.0204L4.73657 12.0522C5.52962 12.3966 6.42903 12.5649 7.36892 12.5053C10.2636 12.3219 12.4461 10.0461 12.2437 7.42232C12.1274 5.9154 11.2498 4.6214 9.9753 3.82758L11.229 1.85938Z" fill="#FA520F" stroke="#FA520F" stroke-width="9"/>
<path d="M10.2651 4.03791L10.1616 3.96811C9.97125 3.83963 9.70475 3.87883 9.56642 4.05567L4.66225 10.3248C4.52392 10.5016 4.56613 10.7491 4.75653 10.8776L4.85997 10.9474C5.05037 11.0759 5.31686 11.0367 5.4552 10.8599L10.3594 4.59073C10.4977 4.41389 10.4555 4.16639 10.2651 4.03791Z" fill="white"/>
<path d="M3.97178 6.96111C3.47851 6.65986 3.13644 6.15277 3.09222 5.55946C3.01735 4.55499 3.82456 3.68376 4.89516 3.61353C5.26019 3.58958 5.60871 3.66184 5.91252 3.8073L5.59842 4.31773C5.39972 4.22843 5.17438 4.18477 4.93889 4.20022C4.21364 4.2478 3.66682 4.83799 3.71754 5.51843C3.74667 5.90923 3.96656 6.24481 4.28587 6.45068L3.97178 6.96111Z" fill="white" stroke="white"/>
<path d="M5.99567 4.21472C6.48893 4.51597 6.83101 5.02306 6.87523 5.61637C6.95009 6.62084 6.14288 7.49207 5.07228 7.56231C4.70725 7.58626 4.35873 7.514 4.05493 7.36854L4.36903 6.85811C4.56773 6.94741 4.79307 6.99106 5.02855 6.97561C5.7538 6.92803 6.30062 6.33785 6.2499 5.6574C6.22078 5.2666 6.00089 4.93102 5.68157 4.72515L5.99567 4.21472Z" fill="white" stroke="white"/>
<path d="M11.1825 10.5016C11.6758 10.2004 12.0179 9.6933 12.0621 9.09999C12.1369 8.09552 11.3297 7.22429 10.2591 7.15405C9.89411 7.1301 9.54559 7.20236 9.24179 7.34782L9.55589 7.85825C9.75458 7.76895 9.97992 7.7253 10.2154 7.74075C10.9407 7.78833 11.4875 8.37851 11.4368 9.05896C11.4076 9.44976 11.1877 9.78534 10.8684 9.99121L11.1825 10.5016Z" fill="white" stroke="white"/>
<path d="M9.15863 7.75525C8.66536 8.0565 8.32329 8.56359 8.27907 9.1569C8.20421 10.1614 9.01141 11.0326 10.082 11.1028C10.447 11.1268 10.7956 11.0545 11.0994 10.9091L10.7853 10.3986C10.5866 10.4879 10.3612 10.5316 10.1257 10.5161C9.40049 10.4686 8.85368 9.87837 8.90439 9.19792C8.93352 8.80712 9.15341 8.47154 9.47273 8.26568L9.15863 7.75525Z" fill="white" stroke="white"/>
</g>
<defs>
<clipPath id="clip0_89:1783">
<rect width="15" height="15" fill="white"/>
</clipPath>
</defs>
</svg>
