<svg width="22" height="20" viewBox="0 0 22 20" fill="none" xmlns="http://www.w3.org/2000/svg">
<path d="M19.4654 6.85452H12.3687C12.4025 6.72012 12.4025 6.58572 12.4025 6.45132V2.11684C12.4025 0.940817 11.4562 0 10.2734 0H2.12903C0.946237 0 0 0.940817 0 2.11684V6.45132C0 7.62734 0.946237 8.56816 2.12903 8.56816H3.37942L3.31183 10.1474C3.31183 10.2818 3.37942 10.4162 3.51459 10.4834C3.58218 10.517 3.64977 10.517 3.71736 10.517C3.78495 10.517 3.85253 10.4834 3.92012 10.4498L6.89401 8.53455H7.26575C7.19816 8.76976 7.13057 9.03856 7.13057 9.30737V14.5491C7.13057 15.9267 8.24578 17.0355 9.63134 17.0355H10.7128L13.1121 19.4548C13.1797 19.522 13.2811 19.5556 13.3825 19.5556C13.4163 19.5556 13.4839 19.5556 13.5177 19.522C13.6528 19.4884 13.7542 19.354 13.7542 19.1859L13.957 17.0019H19.4992C20.8848 17.0019 22 15.8931 22 14.5155V9.34097C22 7.96334 20.851 6.85452 19.4654 6.85452ZM7.63748 7.82894H6.75883C6.69124 7.82894 6.62366 7.86254 6.55607 7.89614L4.12289 9.47537L4.19048 8.23215C4.19048 8.13135 4.15668 8.03055 4.08909 7.96335C4.02151 7.89614 3.92012 7.86254 3.81874 7.86254H2.16283C1.41936 7.86254 0.777266 7.25773 0.777266 6.48492V2.11684C0.777266 1.37762 1.38556 0.739213 2.16283 0.739213H10.3072C11.0507 0.739213 11.6928 1.34402 11.6928 2.11684V6.45132C11.6928 6.58572 11.659 6.72012 11.6252 6.85452H9.63134C8.82028 6.85452 8.07681 7.22413 7.63748 7.82894ZM21.2227 14.5827C21.2227 15.5235 20.4455 16.3299 19.4654 16.3299H13.619C13.4163 16.3299 13.2473 16.4643 13.2473 16.6659L13.0783 18.3795L11.1521 16.4307C11.0845 16.3635 10.9831 16.3299 10.8817 16.3299H9.63134C8.6851 16.3299 7.87404 15.5571 7.87404 14.5827V9.34097C7.87404 8.40015 8.65131 7.59374 9.63134 7.59374H19.4992C20.4455 7.59374 21.2565 8.36655 21.2565 9.34097L21.2227 14.5827Z" fill="#FA520F"/>
<path d="M7.87492 2.88966C7.80733 2.04964 7.16524 1.41123 6.32039 1.34403C5.84727 1.31043 5.40794 1.47843 5.07 1.78084C4.73206 2.08324 4.5293 2.52005 4.5293 2.99046C4.5293 3.19206 4.69827 3.36007 4.90103 3.36007C5.1038 3.36007 5.27277 3.19206 5.27277 2.99046C5.27277 2.75526 5.37415 2.52005 5.54312 2.35205C5.71209 2.18405 5.98245 2.08324 6.219 2.11684C6.65833 2.15044 7.03006 2.52005 7.06386 2.95686C7.09765 3.29287 6.92868 3.59527 6.62453 3.76327C6.08383 4.09928 5.77968 4.63689 5.77968 5.2753C5.77968 5.47691 5.94865 5.64491 6.15142 5.64491C6.35418 5.64491 6.52315 5.47691 6.52315 5.2753C6.52315 4.9393 6.69212 4.60329 6.99627 4.43529C7.60457 4.06568 7.90871 3.49447 7.87492 2.88966Z" fill="#FA520F"/>
<path d="M14.5309 9.13937C14.3282 9.13937 14.1592 9.30737 14.1592 9.50897V12.701C14.1592 12.9026 14.3282 13.0706 14.5309 13.0706C14.7337 13.0706 14.9027 12.9026 14.9027 12.701V9.50897C14.9364 9.30737 14.7675 9.13937 14.5309 9.13937Z" fill="#FA520F"/>
<path d="M14.5309 14.7843C14.7362 14.7843 14.9027 14.6188 14.9027 14.4147C14.9027 14.2105 14.7362 14.0451 14.5309 14.0451C14.3256 14.0451 14.1592 14.2105 14.1592 14.4147C14.1592 14.6188 14.3256 14.7843 14.5309 14.7843Z" fill="#FA520F"/>
<path d="M6.18424 7.02252C6.38954 7.02252 6.55597 6.85704 6.55597 6.65292C6.55597 6.44879 6.38954 6.28331 6.18424 6.28331C5.97893 6.28331 5.8125 6.44879 5.8125 6.65292C5.8125 6.85704 5.97893 7.02252 6.18424 7.02252Z" fill="#FA520F"/>
</svg>
