<svg width="24" height="24" viewBox="0 0 24 24" fill="none" xmlns="http://www.w3.org/2000/svg">
<path fill-rule="evenodd" clip-rule="evenodd" d="M19.759 6.42701C19.5288 6.55861 19.3604 6.77622 19.2906 7.032C19.2209 7.28778 19.2555 7.56079 19.387 7.79101C20.119 9.0728 20.5028 10.5239 20.5 12C20.5 13.6812 20.0015 15.3245 19.0675 16.7224C18.1335 18.1202 16.806 19.2096 15.2528 19.853C13.6996 20.4963 11.9906 20.6647 10.3417 20.3367C8.69289 20.0087 7.17834 19.1992 5.98959 18.0104C4.80085 16.8217 3.9913 15.3071 3.66333 13.6583C3.33535 12.0094 3.50368 10.3004 4.14702 8.7472C4.79037 7.19403 5.87984 5.86651 7.27765 4.93252C8.67547 3.99853 10.3189 3.50001 12 3.50001C13.503 3.50001 14.947 3.89001 16.22 4.62001C16.3339 4.68534 16.4596 4.7276 16.5898 4.74436C16.7201 4.76112 16.8524 4.75207 16.9791 4.71771C17.1059 4.68335 17.2246 4.62437 17.3286 4.54412C17.4325 4.46387 17.5197 4.36393 17.585 4.25001C17.6503 4.13609 17.6926 4.01041 17.7094 3.88016C17.7261 3.74991 17.7171 3.61763 17.6827 3.49088C17.6483 3.36413 17.5894 3.24539 17.5091 3.14143C17.4289 3.03747 17.3289 2.95034 17.215 2.88501C15.6278 1.975 13.8296 1.49742 12 1.50001C6.201 1.50001 1.5 6.20101 1.5 12C1.5 17.799 6.201 22.5 12 22.5C17.799 22.5 22.5 17.799 22.5 12C22.5 10.152 22.02 8.37001 21.123 6.79901C20.9914 6.56886 20.7738 6.40039 20.518 6.33063C20.2622 6.26087 19.9892 6.29554 19.759 6.42701ZM11 13.586L15.293 9.29301C15.3852 9.1975 15.4956 9.12132 15.6176 9.06891C15.7396 9.0165 15.8708 8.98891 16.0036 8.98776C16.1364 8.98661 16.2681 9.01191 16.391 9.06219C16.5138 9.11247 16.6255 9.18672 16.7194 9.28062C16.8133 9.37451 16.8875 9.48616 16.9378 9.60906C16.9881 9.73195 17.0134 9.86363 17.0123 9.99641C17.0111 10.1292 16.9835 10.2604 16.9311 10.3824C16.8787 10.5044 16.8025 10.6148 16.707 10.707L11.707 15.707C11.6144 15.8003 11.5043 15.8744 11.3829 15.9249C11.2616 15.9754 11.1314 16.0015 11 16.0015C10.8686 16.0015 10.7384 15.9754 10.6171 15.9249C10.4957 15.8744 10.3856 15.8003 10.293 15.707L7.293 12.707C7.19749 12.6148 7.12131 12.5044 7.0689 12.3824C7.01649 12.2604 6.9889 12.1292 6.98775 11.9964C6.9866 11.8636 7.0119 11.732 7.06218 11.6091C7.11246 11.4862 7.18671 11.3745 7.2806 11.2806C7.3745 11.1867 7.48615 11.1125 7.60905 11.0622C7.73194 11.0119 7.86362 10.9866 7.9964 10.9878C8.12918 10.9889 8.2604 11.0165 8.3824 11.0689C8.50441 11.1213 8.61475 11.1975 8.707 11.293L11 13.586Z" fill="#FA520F"/>
</svg>
