<svg width="15" height="15" viewBox="0 0 15 15" fill="none" xmlns="http://www.w3.org/2000/svg">
<g clip-path="url(#clip0_108_466)">
<path d="M7.94942 13.6975C11.3347 13.6975 14.079 11.1487 14.079 8.00457C14.079 4.86045 11.3347 2.31165 7.94942 2.31165C4.56414 2.31165 1.81982 4.86045 1.81982 8.00457C1.81982 11.1487 4.56414 13.6975 7.94942 13.6975Z" fill="#FA520F"/>
<path d="M3.74658 13.1353C1.77782 11.9736 0.412504 10.0183 0.23601 7.73051C-0.062793 3.85728 3.159 0.497852 7.43208 0.22701C8.88902 0.134664 10.2801 0.413296 11.4926 0.974187L10.239 2.9424C9.44591 2.59806 8.5465 2.42973 7.60661 2.4893C4.71194 2.67277 2.52944 4.94852 2.73185 7.57232C2.8481 9.07924 3.72574 10.3732 5.00023 11.1671L3.74658 13.1353Z" fill="#FA520F" stroke="#FA520F" stroke-width="9"/>
<path d="M11.229 1.85931C13.1977 3.02093 14.563 4.97626 14.7395 7.26406C15.0383 11.1373 11.8165 14.4967 7.54345 14.7676C6.08651 14.8599 4.69546 14.5813 3.48291 14.0204L4.73657 12.0522C5.52962 12.3965 6.42903 12.5648 7.36892 12.5053C10.2636 12.3218 12.4461 10.0461 12.2437 7.42226C12.1274 5.91533 11.2498 4.62134 9.9753 3.82751L11.229 1.85931Z" fill="#FA520F" stroke="#FA520F" stroke-width="9"/>
<path d="M10.2651 4.03784L10.1616 3.96805C9.97125 3.83957 9.70475 3.87877 9.56642 4.0556L4.66225 10.3247C4.52392 10.5016 4.56613 10.7491 4.75653 10.8776L4.85997 10.9474C5.05037 11.0758 5.31686 11.0366 5.4552 10.8598L10.3594 4.59067C10.4977 4.41383 10.4555 4.16632 10.2651 4.03784Z" fill="white"/>
<path d="M3.97178 6.96105C3.47851 6.6598 3.13644 6.15271 3.09222 5.5594C3.01735 4.55493 3.82456 3.6837 4.89516 3.61346C5.26019 3.58952 5.60871 3.66177 5.91252 3.80723L5.59842 4.31767C5.39972 4.22837 5.17438 4.18471 4.93889 4.20016C4.21364 4.24774 3.66682 4.83792 3.71754 5.51837C3.74667 5.90917 3.96656 6.24475 4.28587 6.45062L3.97178 6.96105Z" fill="white" stroke="white"/>
<path d="M5.99542 4.21472C6.48869 4.51597 6.83076 5.02306 6.87498 5.61637C6.94985 6.62084 6.14264 7.49207 5.07204 7.56231C4.70701 7.58626 4.35849 7.514 4.05469 7.36854L4.36879 6.85811C4.56748 6.94741 4.79283 6.99106 5.02831 6.97561C5.75356 6.92803 6.30037 6.33785 6.24966 5.6574C6.22053 5.2666 6.00064 4.93102 5.68133 4.72515L5.99542 4.21472Z" fill="white" stroke="white"/>
<path d="M11.1825 10.5015C11.6758 10.2003 12.0179 9.69317 12.0621 9.09986C12.1369 8.09539 11.3297 7.22417 10.2591 7.15393C9.89411 7.12998 9.54559 7.20224 9.24179 7.3477L9.55589 7.85813C9.75458 7.76883 9.97992 7.72518 10.2154 7.74063C10.9407 7.78821 11.4875 8.37839 11.4368 9.05884C11.4076 9.44964 11.1877 9.78522 10.8684 9.99109L11.1825 10.5015Z" fill="white" stroke="white"/>
<path d="M9.15887 7.75513C8.66561 8.05638 8.32353 8.56347 8.27931 9.15678C8.20445 10.1612 9.01166 11.0325 10.0823 11.1027C10.4473 11.1267 10.7958 11.0544 11.0996 10.9089L10.7855 10.3985C10.5868 10.4878 10.3615 10.5315 10.126 10.516C9.40074 10.4684 8.85392 9.87825 8.90464 9.1978C8.93376 8.807 9.15365 8.47142 9.47297 8.26555L9.15887 7.75513Z" fill="white" stroke="white"/>
</g>
<defs>
<clipPath id="clip0_108_466">
<rect width="15" height="15" fill="white"/>
</clipPath>
</defs>
</svg>
