<svg width="18" height="18" viewBox="0 0 18 18" fill="none" xmlns="http://www.w3.org/2000/svg">
<path d="M5.08696 7.91816L4.86614 7.46956H4.86614L5.08696 7.91816ZM15.3196 7.53218C15.532 7.35565 15.561 7.04041 15.3845 6.82805L12.5079 3.36754C12.3314 3.15518 12.0161 3.12614 11.8038 3.30266C11.5914 3.47918 11.5624 3.79443 11.7389 4.00678L14.2959 7.0828L11.2199 9.63978C11.0075 9.8163 10.9785 10.1315 11.155 10.3439C11.3315 10.5563 11.6468 10.5853 11.8591 10.4088L15.3196 7.53218ZM3 11C3.49637 11.0601 3.49635 11.0603 3.49633 11.0605C3.49633 11.0605 3.49631 11.0607 3.4963 11.0608C3.49627 11.0609 3.49625 11.0611 3.49624 11.0612C3.49621 11.0615 3.49619 11.0616 3.4962 11.0615C3.4962 11.0615 3.49627 11.061 3.49641 11.0599C3.49668 11.0579 3.49724 11.0538 3.49811 11.0479C3.49985 11.0361 3.50285 11.0168 3.5074 10.9908C3.51652 10.9389 3.53181 10.8607 3.55562 10.7629C3.60344 10.5665 3.68458 10.2951 3.81663 9.99933C4.08262 9.4036 4.53765 8.74584 5.30777 8.36675L4.86614 7.46956C3.81385 7.98753 3.22541 8.87069 2.90352 9.59163C2.74163 9.95419 2.64274 10.2851 2.584 10.5263C2.55454 10.6474 2.53492 10.7469 2.52245 10.8179C2.51621 10.8535 2.51175 10.882 2.50872 10.9026C2.50721 10.9129 2.50606 10.9212 2.50522 10.9275C2.5048 10.9306 2.50447 10.9332 2.5042 10.9353C2.50407 10.9363 2.50396 10.9372 2.50386 10.938C2.50381 10.9384 2.50377 10.9387 2.50373 10.939C2.50371 10.9392 2.50368 10.9394 2.50367 10.9395C2.50365 10.9397 2.50363 10.9399 3 11ZM5.30777 8.36675C5.9548 8.04826 6.87049 7.83147 7.91611 7.6952C8.95321 7.56004 10.0803 7.50859 11.1277 7.50101C12.1736 7.49344 13.1319 7.52967 13.8289 7.56785C14.1772 7.58693 14.4597 7.60647 14.6546 7.62119C14.752 7.62854 14.8275 7.63469 14.8783 7.63898C14.9038 7.64112 14.923 7.6428 14.9358 7.64392C14.9421 7.64448 14.9469 7.64491 14.95 7.64519C14.9515 7.64533 14.9526 7.64543 14.9533 7.64549C14.9537 7.64552 14.9539 7.64555 14.954 7.64556C14.9541 7.64556 14.9541 7.64557 14.9542 7.64557C14.9542 7.64557 14.9541 7.64557 15 7.14767C15.0459 6.64978 15.0458 6.64978 15.0457 6.64977C15.0456 6.64976 15.0455 6.64975 15.0453 6.64973C15.045 6.64971 15.0446 6.64967 15.0441 6.64962C15.0431 6.64953 15.0417 6.6494 15.0398 6.64923C15.0361 6.6489 15.0307 6.64842 15.0237 6.6478C15.0097 6.64656 14.9891 6.64477 14.9623 6.64251C14.9087 6.638 14.8304 6.63161 14.7299 6.62403C14.529 6.60885 14.2396 6.58885 13.8836 6.56935C13.1722 6.53038 12.1925 6.49328 11.1204 6.50104C10.0497 6.50878 8.87862 6.5613 7.78688 6.70358C6.70367 6.84475 5.65985 7.07886 4.86614 7.46956L5.30777 8.36675Z" fill="black"/>
</svg>
