<svg width="24" height="24" viewBox="0 0 24 24" fill="none" xmlns="http://www.w3.org/2000/svg">
<path fill-rule="evenodd" clip-rule="evenodd" d="M23 8.5C23 4.8 20.861 2 17.282 2C15.115 2 13.136 3.069 12 4.742C10.864 3.069 8.884 2 6.718 2C3.138 2 1 4.8 1 8.5C1 12.317 3.886 16.164 11.4 21.8L12 22.25L12.6 21.8C20.115 16.164 23 12.316 23 8.5ZM17.282 4C19.622 4 21 5.805 21 8.5C21 11.43 18.602 14.711 12 19.746C5.398 14.712 3 11.43 3 8.5C3 5.805 4.379 4 6.718 4C9.03 4 11 5.743 11 8H13C13 5.743 14.969 4 17.282 4Z" fill="black"/>
</svg>
