<svg width="24" height="24" viewBox="0 0 24 24" fill="none" xmlns="http://www.w3.org/2000/svg">
<path d="M17.282 1.00002C21.34 1.00002 23.999 4.14702 24 8.50002C24 12.787 20.832 16.876 13.2 22.6L12 23.5L10.8 22.6C3.168 16.876 0 12.787 0 8.50002C0 4.14702 2.659 1.00002 6.718 1.00002C8.734 1.00002 10.64 1.80602 12 3.17702C12.694 2.48468 13.5178 1.93603 14.4242 1.56247C15.3305 1.18891 16.3017 0.99778 17.282 1.00002Z" fill="white"/>
<path fill-rule="evenodd" clip-rule="evenodd" d="M23 8.5C23 4.8 20.861 2 17.282 2C15.115 2 13.136 3.069 12 4.742C10.864 3.069 8.884 2 6.718 2C3.138 2 1 4.8 1 8.5C1 12.317 3.886 16.164 11.4 21.8L12 22.25L12.6 21.8C20.115 16.164 23 12.316 23 8.5ZM17.282 4C19.622 4 21 5.805 21 8.5C21 11.43 18.602 14.711 12 19.746C5.398 14.712 3 11.43 3 8.5C3 5.805 4.379 4 6.718 4C9.03 4 11 5.743 11 8H13C13 5.743 14.969 4 17.282 4Z" fill="#001A34"/>
</svg>
