<svg width="24" height="24" viewBox="0 0 24 24" fill="none" xmlns="http://www.w3.org/2000/svg">
<path d="M9.99603 17.991C8.41448 17.9912 6.8684 17.5224 5.55331 16.6439C4.23822 15.7653 3.2132 14.5165 2.60788 13.0554C2.00256 11.5943 1.84412 9.9865 2.15262 8.43533C2.46111 6.88416 3.22268 5.45932 4.341 4.341C5.45932 3.22268 6.88416 2.46111 8.43533 2.15262C9.9865 1.84412 11.5943 2.00256 13.0554 2.60788C14.5165 3.2132 15.7653 4.23822 16.6439 5.55331C17.5224 6.8684 17.9912 8.41448 17.991 9.99603C17.991 10.2612 17.8857 10.5156 17.6981 10.7031C17.5106 10.8907 17.2562 10.996 16.991 10.996C16.7258 10.996 16.4715 10.8907 16.2839 10.7031C16.0964 10.5156 15.991 10.2612 15.991 9.99603C15.9909 8.60883 15.5099 7.26457 14.6298 6.1923C13.7497 5.12003 12.525 4.3861 11.1644 4.11555C9.80388 3.845 8.3916 4.05457 7.16824 4.70856C5.94487 5.36255 4.98611 6.42049 4.45532 7.70213C3.92453 8.98376 3.85455 10.4098 4.2573 11.7372C4.66005 13.0647 5.51062 14.2114 6.66407 14.9821C7.81752 15.7527 9.2025 16.0995 10.583 15.9635C11.9635 15.8275 13.2542 15.217 14.235 14.236L14.942 13.528L22.057 20.643C22.1525 20.7353 22.2287 20.8456 22.2811 20.9676C22.3335 21.0896 22.3611 21.2208 22.3623 21.3536C22.3634 21.4864 22.3381 21.6181 22.2878 21.741C22.2376 21.8639 22.1633 21.9755 22.0694 22.0694C21.9755 22.1633 21.8639 22.2376 21.741 22.2878C21.6181 22.3381 21.4864 22.3634 21.3536 22.3623C21.2208 22.3611 21.0896 22.3335 20.9676 22.2811C20.8456 22.2287 20.7353 22.1525 20.643 22.057L14.898 16.312C13.4969 17.4026 11.7716 17.9939 9.99603 17.992V17.991Z" fill="black"/>
</svg>
