<svg width="24" height="24" viewBox="0 0 24 24" fill="none" xmlns="http://www.w3.org/2000/svg">
<path fill-rule="evenodd" clip-rule="evenodd" d="M13.01 20.305C7.905 20.891 3.5 16.935 3.5 11.863C3.50029 10.174 4.00334 8.5233 4.94507 7.12121C5.88681 5.71912 7.22459 4.62909 8.788 3.98999C9.08428 5.16803 9.76542 6.21342 10.7234 6.96033C11.6813 7.70725 12.8613 8.11291 14.076 8.11298H14.375C14.6402 8.11298 14.8946 8.00763 15.0821 7.82009C15.2696 7.63256 15.375 7.3782 15.375 7.11299C15.375 6.84777 15.2696 6.59341 15.0821 6.40588C14.8946 6.21834 14.6402 6.11299 14.375 6.11299H14.075C13.16 6.11299 12.2825 5.7495 11.6355 5.1025C10.9885 4.4555 10.625 3.57798 10.625 2.66299V1.37299L9.375 1.69299C7.12063 2.27559 5.12378 3.5908 3.6983 5.43189C2.27282 7.27298 1.49954 9.53555 1.5 11.864C1.5 18.128 6.943 23.015 13.237 22.294C17.912 21.757 21.74 18.034 22.393 13.381C22.898 9.78098 21.574 6.30899 18.945 3.98899C17.7063 2.89406 16.2259 2.10795 14.625 1.69499C14.4978 1.66216 14.3654 1.6547 14.2353 1.67304C14.1053 1.69138 13.9801 1.73516 13.8669 1.80188C13.7538 1.8686 13.6549 1.95695 13.5759 2.06189C13.4969 2.16683 13.4393 2.2863 13.4065 2.41349C13.3737 2.54067 13.3662 2.67308 13.3846 2.80314C13.4029 2.93321 13.4467 3.05839 13.5134 3.17154C13.5801 3.28469 13.6685 3.38359 13.7734 3.46259C13.8783 3.54159 13.9978 3.59915 14.125 3.63199C15.4206 3.96626 16.6186 4.60263 17.621 5.48899C19.753 7.36898 20.823 10.176 20.412 13.102C19.886 16.852 16.78 19.873 13.009 20.306L13.01 20.305ZM6.29 11.808C6.48 11.989 6.74 12.1 7 12.1C7.26 12.1 7.52 11.99 7.71 11.808C7.89 11.617 8 11.355 8 11.094C8 10.832 7.89 10.57 7.71 10.379C7.51716 10.1995 7.26347 10.0997 7 10.0997C6.73653 10.0997 6.48284 10.1995 6.29 10.379C6.11 10.57 6 10.832 6 11.094C6 11.355 6.11 11.617 6.29 11.808ZM16.29 11.81C16.48 11.99 16.74 12.1 17 12.1C17.26 12.1 17.52 11.99 17.71 11.81C17.8 11.71 17.87 11.6 17.92 11.479C17.97 11.359 18 11.229 18 11.099C18 10.969 17.97 10.838 17.92 10.718C17.87 10.598 17.8 10.488 17.71 10.388C17.61 10.297 17.51 10.227 17.38 10.177C17.01 10.017 16.57 10.117 16.29 10.387C16.2 10.487 16.13 10.597 16.08 10.717C16.03 10.837 16 10.968 16 11.098C16 11.228 16.03 11.358 16.08 11.479C16.13 11.599 16.2 11.709 16.29 11.809V11.81ZM8.793 16.805C8.60536 16.6175 8.49989 16.3631 8.4998 16.0978C8.4997 15.8326 8.60499 15.5781 8.7925 15.3905C8.98001 15.2028 9.23438 15.0974 9.49965 15.0973C9.76492 15.0972 10.0194 15.2025 10.207 15.39C11.197 16.38 12.803 16.38 13.793 15.39C13.9806 15.2025 14.2351 15.0972 14.5004 15.0973C14.7656 15.0974 15.02 15.2028 15.2075 15.3905C15.395 15.5781 15.5003 15.8326 15.5002 16.0978C15.5001 16.3631 15.3946 16.6175 15.207 16.805C14.3562 17.6551 13.2027 18.1327 12 18.1327C10.7973 18.1327 9.64376 17.6551 8.793 16.805Z" fill="black"/>
</svg>
