<svg width="30" height="32" viewBox="0 0 30 32" fill="none" xmlns="http://www.w3.org/2000/svg">
<path fill-rule="evenodd" clip-rule="evenodd" d="M6.45092 28.7982C7.22487 29.2249 7.77063 29.4925 8.06352 29.5925C8.12908 29.6149 8.81691 29.8467 10.0546 30.2635C15.8599 32.2185 22.263 30.1906 25.8844 25.25C30.4757 18.9861 29.1199 10.1862 22.856 5.59481L22.0329 4.99149L23.2209 3.43787L20.6726 2.08045L19.9756 1.83101C14.0854 -0.277064 7.50959 1.72034 3.78695 6.74832C-0.877136 13.0479 0.44867 21.9357 6.74822 26.5998L7.4971 27.1542L6.45092 28.7982Z" stroke="white" stroke-width="2"/>
<path d="M18 13.8571H15.616V12.3002C15.616 11.7156 16.0052 11.5793 16.2793 11.5793C16.5528 11.5793 17.9616 11.5793 17.9616 11.5793V9.009L15.6447 9C13.0727 9 12.4874 10.917 12.4874 12.1438V13.8571H11V16.5056H12.4874C12.4874 19.9046 12.4874 24 12.4874 24H15.616C15.616 24 15.616 19.8642 15.616 16.5056H17.7271L18 13.8571Z" fill="white"/>
</svg>
