<svg width="33" height="32" viewBox="0 0 33 32" fill="none" xmlns="http://www.w3.org/2000/svg">
<g clip-path="url(#clip0_93:296)">
<path fill-rule="evenodd" clip-rule="evenodd" d="M7.38461 28.7982C8.20758 29.2249 8.78792 29.4925 9.09936 29.5925C9.16907 29.6149 9.90048 29.8467 11.2165 30.2635C17.3897 32.2185 24.1983 30.1906 28.0491 25.25C32.9313 18.9861 31.4896 10.1862 24.8289 5.59481L23.9536 4.99149L25.217 3.43787L22.5072 2.08045L21.7661 1.83101C15.5027 -0.277064 8.51034 1.72034 4.55188 6.74832C-0.40767 13.0479 1.00212 21.9357 7.70074 26.5998L8.49705 27.1542L7.38461 28.7982Z" stroke="#2DA4D7" stroke-width="2"/>
<path d="M20.6015 24C20.4686 24 20.3366 23.9638 20.2234 23.8932L15.9455 21.2237L13.651 22.7425C13.4711 22.8615 13.2391 22.8915 13.0302 22.8228C12.8215 22.7539 12.663 22.5949 12.6065 22.3977L11.4544 18.3812L7.33794 16.9332C7.0788 16.842 6.90693 16.6139 6.90504 16.3587C6.90316 16.1034 7.07161 15.8732 7.3295 15.7788L22.9818 10.0492C23.0528 10.0214 23.1279 10.0054 23.2037 10.0011C23.2308 9.99964 23.258 9.99964 23.2851 10.001C23.442 10.0096 23.5962 10.0684 23.7165 10.177C23.729 10.1882 23.7409 10.1997 23.7521 10.2117C23.8518 10.3164 23.9065 10.4441 23.9169 10.5742C23.9194 10.607 23.9192 10.6401 23.9161 10.6732C23.9139 10.6968 23.9102 10.7204 23.905 10.7438L21.263 23.4964C21.2205 23.7013 21.0689 23.8728 20.8595 23.9527C20.7765 23.9844 20.6888 24 20.6015 24ZM16.3211 19.9608L20.1317 22.3386L22.1874 12.4156L14.7626 18.9883L16.3031 19.9496C16.3093 19.9532 16.3152 19.957 16.3211 19.9608ZM13.1489 19.432L13.6591 21.2106L14.7584 20.4829L13.319 19.5846C13.2521 19.543 13.1948 19.4911 13.1489 19.432ZM9.4315 16.3429L12.2581 17.3371C12.4605 17.4083 12.6134 17.5649 12.6687 17.7577L13.0271 19.0074C13.0436 18.8633 13.1146 18.7277 13.23 18.6255L20.3048 12.3628L9.4315 16.3429Z" fill="#2EA5D8"/>
</g>
<defs>
<clipPath id="clip0_93:296">
<rect width="31.9005" height="32" fill="white" transform="translate(0.524902)"/>
</clipPath>
</defs>
</svg>
