<svg width="30" height="32" viewBox="0 0 30 32" fill="none" xmlns="http://www.w3.org/2000/svg">
<path fill-rule="evenodd" clip-rule="evenodd" d="M6.45092 28.7982C7.22487 29.2249 7.77063 29.4925 8.06352 29.5925C8.12908 29.6149 8.81691 29.8467 10.0546 30.2635C15.8599 32.2185 22.263 30.1906 25.8844 25.25C30.4757 18.9861 29.1199 10.1862 22.856 5.59481L22.0329 4.99149L23.2209 3.43787L20.6726 2.08045L19.9756 1.83101C14.0854 -0.277064 7.50959 1.72034 3.78695 6.74832C-0.877136 13.0479 0.44867 21.9357 6.74822 26.5998L7.4971 27.1542L6.45092 28.7982Z" stroke="white" stroke-width="2"/>
<path fill-rule="evenodd" clip-rule="evenodd" d="M14.339 20.9665H15.2361C15.2361 20.9665 15.5071 20.9385 15.6451 20.7996C15.7721 20.6716 15.7681 20.4316 15.7681 20.4316C15.7681 20.4316 15.7501 19.3056 16.3091 19.1406C16.8591 18.9776 17.5661 20.2276 18.3151 20.7086C18.8822 21.0725 19.3122 20.9925 19.3122 20.9925L21.3152 20.9665C21.3152 20.9665 22.3632 20.9065 21.8662 20.1356C21.8252 20.0726 21.5772 19.5656 20.3772 18.5247C19.1212 17.4347 19.2892 17.6107 20.8022 15.7258C21.7232 14.5778 22.0922 13.8769 21.9772 13.5769C21.8672 13.2909 21.1902 13.3669 21.1902 13.3669L18.9352 13.3799C18.9352 13.3799 18.7682 13.3589 18.6441 13.4279C18.5597 13.4851 18.4912 13.5628 18.4451 13.6539C18.4451 13.6539 18.0881 14.5418 17.6121 15.2978C16.6081 16.8917 16.2061 16.9767 16.0421 16.8777C15.6591 16.6467 15.7541 15.9498 15.7541 15.4558C15.7541 13.9109 16.0051 13.2669 15.2661 13.0999C15.0211 13.0439 14.84 13.0079 14.213 13.0019C13.408 12.9939 12.727 13.0039 12.342 13.1809C12.085 13.2979 11.887 13.5599 12.008 13.5749C12.157 13.5939 12.494 13.6599 12.673 13.8879C12.904 14.1818 12.896 14.8418 12.896 14.8418C12.896 14.8418 13.029 16.6607 12.586 16.8867C12.282 17.0417 11.865 16.7257 10.9699 15.2788C10.5109 14.5378 10.1649 13.7189 10.1649 13.7189C10.1649 13.7189 10.0979 13.5659 9.97892 13.4839C9.83391 13.3849 9.63191 13.3529 9.63191 13.3529L7.48885 13.3669C7.48885 13.3669 7.16684 13.3749 7.04884 13.5059C6.94383 13.6219 7.04084 13.8629 7.04084 13.8629C7.04084 13.8629 8.71888 17.5327 10.6189 19.3826C12.361 21.0775 14.339 20.9665 14.339 20.9665Z" stroke="white"/>
</svg>
