<svg width="32" height="32" viewBox="0 0 32 32" fill="none" xmlns="http://www.w3.org/2000/svg">
<g clip-path="url(#clip0_93:249)">
<path fill-rule="evenodd" clip-rule="evenodd" d="M6.93661 28.7982C7.75958 29.2249 8.33992 29.4925 8.65136 29.5925C8.72108 29.6149 9.45248 29.8467 10.7685 30.2635C16.9417 32.2185 23.7503 30.1906 27.6011 25.25C32.4833 18.9861 31.0416 10.1862 24.3809 5.59481L23.5056 4.99149L24.769 3.43787L22.0592 2.08045L21.3181 1.83101C15.0547 -0.277064 8.06234 1.72034 4.10388 6.74832C-0.855668 13.0479 0.554125 21.9357 7.25274 26.5998L8.04906 27.1542L6.93661 28.7982Z" stroke="#42CE4C" stroke-width="2"/>
<path d="M24.3213 15.7067C24.3213 19.7422 20.816 23.0136 16.4912 23.0136C15.1182 23.0136 13.8284 22.6836 12.7062 22.1044L8.37109 23.3999L9.78446 19.4796C9.07149 18.3786 8.66086 17.0872 8.66086 15.7067C8.66086 11.6712 12.1665 8.3999 16.4912 8.3999C20.8163 8.3999 24.3213 11.6712 24.3213 15.7067ZM16.4912 9.56357C12.8609 9.56357 9.90799 12.3194 9.90799 15.7067C9.90799 17.0509 10.3739 18.2957 11.162 19.3084L10.3395 21.5899L12.8694 20.8337C13.9088 21.4756 15.154 21.8499 16.4914 21.8499C20.1211 21.8499 23.0745 19.0944 23.0745 15.7071C23.0745 12.3197 20.1213 9.56357 16.4912 9.56357ZM20.4452 17.3896C20.3969 17.3151 20.2691 17.2701 20.0773 17.1806C19.8852 17.0911 18.9413 16.6576 18.7659 16.5981C18.5899 16.5384 18.4616 16.5084 18.3338 16.6876C18.206 16.8669 17.8381 17.2701 17.7259 17.3896C17.6139 17.5094 17.5021 17.5244 17.31 17.4347C17.1182 17.3452 16.4999 17.1559 15.7667 16.5459C15.1962 16.0712 14.8109 15.4852 14.6989 15.3057C14.5871 15.1266 14.6872 15.0297 14.7831 14.9406C14.8696 14.8602 14.9752 14.7314 15.0711 14.6269C15.1673 14.5222 15.1992 14.4477 15.2628 14.3281C15.3272 14.2086 15.2951 14.1041 15.2469 14.0142C15.199 13.9247 14.8148 13.0434 14.655 12.6847C14.4951 12.3264 14.3354 12.3861 14.2232 12.3861C14.1114 12.3861 13.9833 12.3711 13.8553 12.3711C13.7274 12.3711 13.5193 12.4159 13.3433 12.5951C13.1675 12.7744 12.6718 13.2077 12.6718 14.0889C12.6718 14.9702 13.3593 15.8217 13.4555 15.9411C13.5514 16.0604 14.7829 17.9277 16.7341 18.6449C18.6856 19.3617 18.6856 19.1226 19.0375 19.0926C19.3892 19.0627 20.1728 18.6594 20.3334 18.2414C20.4929 17.8227 20.4929 17.4642 20.4452 17.3896Z" fill="#45D94F"/>
</g>
<defs>
<clipPath id="clip0_93:249">
<rect width="31.9005" height="32" fill="white" transform="translate(0.0769043)"/>
</clipPath>
</defs>
</svg>
