<svg width="30" height="32" viewBox="0 0 30 32" fill="none" xmlns="http://www.w3.org/2000/svg">
<path fill-rule="evenodd" clip-rule="evenodd" d="M6.45092 28.7982C7.22487 29.2249 7.77063 29.4925 8.06352 29.5925C8.12908 29.6149 8.81691 29.8467 10.0546 30.2635C15.8599 32.2185 22.263 30.1906 25.8844 25.25C30.4757 18.9861 29.1199 10.1862 22.856 5.59481L22.0329 4.99149L23.2209 3.43787L20.6726 2.08045L19.9756 1.83101C14.0854 -0.277064 7.50959 1.72034 3.78695 6.74832C-0.877136 13.0479 0.44867 21.9357 6.74822 26.5998L7.4971 27.1542L6.45092 28.7982Z" stroke="white" stroke-width="2"/>
<path d="M20.0193 10H9.78047C7.91637 10 6.3999 11.5531 6.3999 13.4617V19.2883C6.3999 21.1973 7.91637 22.75 9.78047 22.75H20.0193C21.8834 22.75 23.3999 21.1969 23.3999 19.2883V13.4617C23.3999 11.5531 21.8834 10 20.0193 10ZM22.706 19.2886C22.706 20.807 21.5008 22.042 20.0193 22.042H9.78047C8.29905 22.042 7.09378 20.8066 7.09378 19.2886V13.4617C7.09378 11.9437 8.29905 10.7084 9.78047 10.7084H20.0193C21.5008 10.7084 22.706 11.9437 22.706 13.4617V19.2886Z" fill="white" stroke="white"/>
<path d="M17.9215 16.0733L13.2792 13.2353C13.176 13.1724 13.0476 13.1713 12.9434 13.2336C12.8392 13.2958 12.7749 13.4116 12.7749 13.5371V19.2128C12.7749 19.338 12.8392 19.4541 12.9431 19.5163C12.9947 19.5471 13.0523 19.5625 13.11 19.5625C13.1686 19.5625 13.2269 19.5464 13.2792 19.5146L17.9215 16.6773C18.0241 16.6147 18.0874 16.4996 18.0874 16.3755C18.0874 16.2513 18.0244 16.1359 17.9215 16.0733ZM13.445 18.6025V14.1471L17.0892 16.3751L13.445 18.6025Z" fill="white" stroke="white" stroke-width="0.6"/>
</svg>
