<svg width="24" height="24" viewBox="0 0 24 24" fill="none" xmlns="http://www.w3.org/2000/svg">
<path fill-rule="evenodd" clip-rule="evenodd" d="M9.99994 2C8.93908 2 7.92166 2.42143 7.17152 3.17157C6.42137 3.92172 5.99994 4.93913 5.99994 6V8H0.866943L2.17994 18.496C2.30086 19.4636 2.77105 20.3537 3.50214 20.999C4.23322 21.6442 5.17483 22.0002 6.14994 22H17.8529C18.8279 22 19.7693 21.6439 20.5001 20.9986C21.231 20.3534 21.701 19.4634 21.8219 18.496L23.1329 8H17.9999V6C17.9999 4.93913 17.5785 3.92172 16.8284 3.17157C16.0782 2.42143 15.0608 2 13.9999 2H9.99994ZM12.9999 9C12.9999 8.73478 12.8946 8.48043 12.7071 8.29289C12.5195 8.10536 12.2652 8 11.9999 8H7.99994V6C7.99994 5.46957 8.21066 4.96086 8.58573 4.58579C8.9608 4.21071 9.46951 4 9.99994 4H13.9999C14.5304 4 15.0391 4.21071 15.4142 4.58579C15.7892 4.96086 15.9999 5.46957 15.9999 6V10H20.8669L19.8369 18.248C19.7765 18.732 19.5412 19.1772 19.1755 19.4998C18.8097 19.8225 18.3387 20.0004 17.8509 20H6.14794C5.66056 19.9999 5.19 19.8218 4.82466 19.4991C4.45933 19.1765 4.22438 18.7316 4.16394 18.248L3.13294 10H11.9999C12.2652 10 12.5195 9.89464 12.7071 9.70711C12.8946 9.51957 12.9999 9.26522 12.9999 9Z" fill="black"/>
</svg>
